<svg width="48" height="48" viewBox="0 0 48 48" fill="none" xmlns="http://www.w3.org/2000/svg">
<path d="M23.8899 25C26.099 25 27.8899 23.2091 27.8899 21C27.8899 18.7909 26.099 17 23.8899 17C21.6808 17 19.8899 18.7909 19.8899 21C19.8899 23.2091 21.6808 25 23.8899 25Z" fill="#1E283A"/>
<path d="M23.8899 25C26.099 25 27.8899 23.2091 27.8899 21C27.8899 18.7909 26.099 17 23.8899 17C21.6808 17 19.8899 18.7909 19.8899 21C19.8899 23.2091 21.6808 25 23.8899 25Z" fill="#1E283A"/>
<path d="M23.8899 25C26.099 25 27.8899 23.2091 27.8899 21C27.8899 18.7909 26.099 17 23.8899 17C21.6808 17 19.8899 18.7909 19.8899 21C19.8899 23.2091 21.6808 25 23.8899 25Z" fill="#1E283A"/>
<path d="M38.0001 20.2099C37.5901 13.1199 31.0501 6.8399 24.0001 6.8999C17.2101 6.7799 10.3401 12.9999 10.0001 20.2499C9.73012 27.8799 15.2001 34.1599 17.6701 36.9999C19.5996 39.113 21.6461 41.1162 23.8001 42.9999C24.6957 42.4338 25.548 41.8021 26.3501 41.1099L24.0001 38.8699L23.7001 38.5999C22.7901 37.7699 20.7001 35.5199 19.5301 34.2999C17.5301 32.0399 13.1301 26.2999 13.2001 20.9999C13.2501 15.0699 18.6001 10.0499 24.0001 10.0999C29.4001 10.1499 34.7301 15.0999 34.8101 20.9999C34.8101 24.8799 32.6801 29.1799 29.6301 32.9999C28.5849 34.2994 27.4699 35.5413 26.2901 36.7199C27.1201 37.5399 28.0701 38.3499 28.6901 38.8699C29.8407 37.7154 30.9289 36.5003 31.9501 35.2299C35.6501 30.5599 38.2001 25.7799 38.0001 20.2099Z" fill="#1E283A"/>
</svg>
