<svg fill="none" height="4846" viewBox="0 0 1440 4846" width="1440" xmlns="http://www.w3.org/2000/svg" xmlns:xlink="http://www.w3.org/1999/xlink"><linearGradient id="a"><stop offset="0" stop-color="#01e1ff"/><stop offset="1" stop-color="#01e1ff" stop-opacity="0"/></linearGradient><linearGradient id="b" gradientUnits="userSpaceOnUse" x1="782" x2="987" xlink:href="#a" y1="-160.999" y2="-160.999"/><linearGradient id="c" gradientUnits="userSpaceOnUse" x1="1105" x2="1310" xlink:href="#a" y1="3442" y2="3442"/><linearGradient id="d" gradientUnits="userSpaceOnUse" x1="1105" x2="1310" xlink:href="#a" y1="4641" y2="4641"/><linearGradient id="e" gradientUnits="userSpaceOnUse" x1="219.5" x2="314" y1="-43.793" y2="-43.293"><stop offset="0" stop-color="#01ffc4"/><stop offset="1" stop-color="#01ffc4" stop-opacity="0"/></linearGradient><linearGradient id="f"><stop offset="0" stop-color="#f8cc6b"/><stop offset="1" stop-color="#f8cc6b" stop-opacity="0"/></linearGradient><linearGradient id="g" gradientUnits="userSpaceOnUse" x1="648.5" x2="743" xlink:href="#f" y1="29.5" y2="29"/><linearGradient id="h" gradientUnits="userSpaceOnUse" x1="519.5" x2="614" xlink:href="#f" y1="4058.5" y2="4058"/><linearGradient id="i" gradientUnits="userSpaceOnUse" x1="25.5" x2="120" xlink:href="#f" y1="1325.5" y2="1325"/><linearGradient id="j"><stop offset="0" stop-color="#a16be3"/><stop offset="1" stop-color="#a16be3" stop-opacity="0"/></linearGradient><linearGradient id="k" gradientUnits="userSpaceOnUse" x1="70.5" x2="165" xlink:href="#j" y1="4022.5" y2="4022"/><linearGradient id="l" gradientUnits="userSpaceOnUse" x1="70.5" x2="165" xlink:href="#j" y1="3473.5" y2="3473"/><filter id="m" color-interpolation-filters="sRGB" filterUnits="userSpaceOnUse" height="229.707" width="229.707" x="105" y="-159"><feFlood flood-opacity="0" result="BackgroundImageFix"/><feColorMatrix in="SourceAlpha" result="hardAlpha" values="0 0 0 0 0 0 0 0 0 0 0 0 0 0 0 0 0 0 127 0"/><feOffset/><feGaussianBlur stdDeviation="10"/><feComposite in2="hardAlpha" operator="out"/><feColorMatrix values="0 0 0 0 0 0 0 0 0 1 0 0 0 0 0.768212 0 0 0 0.2 0"/><feBlend in2="BackgroundImageFix" result="effect1_dropShadow_22_4"/><feBlend in="SourceGraphic" in2="effect1_dropShadow_22_4" result="shape"/></filter><path d="m67.354-196.354 1531.996 1532.004m-1178.996-1532.004 1531.996 1532.004m-1204.996-1532.004 1531.996 1532.004" stroke="#081524"/><path d="m577.354-366.354 410 410.001" stroke="url(#b)"/><path d="m900.354 3236.65 409.996 410" stroke="url(#c)"/><path d="m900.354 4435.65 409.996 410" stroke="url(#d)"/><g filter="url(#m)"><path clip-rule="evenodd" d="m314 50.707-189-189 .707-.707 189 189z" fill="url(#e)" fill-rule="evenodd" shape-rendering="crispEdges"/></g><path d="m554.354-65.354 189 189" stroke="url(#g)"/><path d="m425.354 3963.65 189 189" stroke="url(#h)"/><path d="m-68.646 1230.65 189 189" stroke="url(#i)"/><path d="m-23.646 3927.65 189 189" stroke="url(#k)"/><path d="m-23.646 3378.65 189 189" stroke="url(#l)"/></svg>