<svg xmlns="http://www.w3.org/2000/svg" width="476.52" height="198.84" viewBox="-28.68 -122.64 476.52 198.84">
<style>.letter-0 {
  fill: none; stroke: #f97316; stroke-width: 2.5;
  stroke-linecap: round; stroke-linejoin: round;
  stroke-dasharray: 186.15; stroke-dashoffset: 186.15;
  animation: anim0 4.799999999999999s ease-in-out infinite;
}
@keyframes anim0 {
  0%, 0.00% { stroke-dashoffset: 186.15; }
  20.83% { stroke-dashoffset: 0; }
  50.00% { stroke-dashoffset: 0; }
  70.83% { stroke-dashoffset: 186.15; }
  100% { stroke-dashoffset: 186.15; }
}
.letter-1 {
  fill: none; stroke: #f97316; stroke-width: 2.5;
  stroke-linecap: round; stroke-linejoin: round;
  stroke-dasharray: 376.44; stroke-dashoffset: 376.44;
  animation: anim1 4.799999999999999s ease-in-out infinite;
}
@keyframes anim1 {
  0%, 4.17% { stroke-dashoffset: 376.44; }
  25.00% { stroke-dashoffset: 0; }
  50.00% { stroke-dashoffset: 0; }
  75.00% { stroke-dashoffset: 376.44; }
  100% { stroke-dashoffset: 376.44; }
}
.letter-2 {
  fill: none; stroke: #f97316; stroke-width: 2.5;
  stroke-linecap: round; stroke-linejoin: round;
  stroke-dasharray: 251.41; stroke-dashoffset: 251.41;
  animation: anim2 4.799999999999999s ease-in-out infinite;
}
@keyframes anim2 {
  0%, 8.33% { stroke-dashoffset: 251.41; }
  29.17% { stroke-dashoffset: 0; }
  50.00% { stroke-dashoffset: 0; }
  79.17% { stroke-dashoffset: 251.41; }
  100% { stroke-dashoffset: 251.41; }
}
.letter-3 {
  fill: none; stroke: #f97316; stroke-width: 2.5;
  stroke-linecap: round; stroke-linejoin: round;
  stroke-dasharray: 304.43; stroke-dashoffset: 304.43;
  animation: anim3 4.799999999999999s ease-in-out infinite;
}
@keyframes anim3 {
  0%, 12.50% { stroke-dashoffset: 304.43; }
  33.33% { stroke-dashoffset: 0; }
  50.00% { stroke-dashoffset: 0; }
  83.33% { stroke-dashoffset: 304.43; }
  100% { stroke-dashoffset: 304.43; }
}
.letter-4 {
  fill: none; stroke: #f97316; stroke-width: 2.5;
  stroke-linecap: round; stroke-linejoin: round;
  stroke-dasharray: 498.66; stroke-dashoffset: 498.66;
  animation: anim4 4.799999999999999s ease-in-out infinite;
}
@keyframes anim4 {
  0%, 16.67% { stroke-dashoffset: 498.66; }
  37.50% { stroke-dashoffset: 0; }
  50.00% { stroke-dashoffset: 0; }
  87.50% { stroke-dashoffset: 498.66; }
  100% { stroke-dashoffset: 498.66; }
}
.letter-5 {
  fill: none; stroke: #f97316; stroke-width: 2.5;
  stroke-linecap: round; stroke-linejoin: round;
  stroke-dasharray: 235.21; stroke-dashoffset: 235.21;
  animation: anim5 4.799999999999999s ease-in-out infinite;
}
@keyframes anim5 {
  0%, 20.83% { stroke-dashoffset: 235.21; }
  41.67% { stroke-dashoffset: 0; }
  50.00% { stroke-dashoffset: 0; }
  91.67% { stroke-dashoffset: 235.21; }
  100% { stroke-dashoffset: 235.21; }
}
.letter-6 {
  fill: none; stroke: #f97316; stroke-width: 2.5;
  stroke-linecap: round; stroke-linejoin: round;
  stroke-dasharray: 251.41; stroke-dashoffset: 251.41;
  animation: anim6 4.799999999999999s ease-in-out infinite;
}
@keyframes anim6 {
  0%, 25.00% { stroke-dashoffset: 251.41; }
  45.83% { stroke-dashoffset: 0; }
  50.00% { stroke-dashoffset: 0; }
  95.83% { stroke-dashoffset: 251.41; }
  100% { stroke-dashoffset: 251.41; }
}
.letter-7 {
  fill: none; stroke: #f97316; stroke-width: 2.5;
  stroke-linecap: round; stroke-linejoin: round;
  stroke-dasharray: 168.68; stroke-dashoffset: 168.68;
  animation: anim7 4.799999999999999s ease-in-out infinite;
}
@keyframes anim7 {
  0%, 29.17% { stroke-dashoffset: 168.68; }
  50.00% { stroke-dashoffset: 0; }
  50.00% { stroke-dashoffset: 0; }
  99.00% { stroke-dashoffset: 168.68; }
  100% { stroke-dashoffset: 168.68; }
}
</style>
<g><path d="M33.72-17.04L33.72-17.04L36.60-14.64Q33.72-8.04 27.36-4.08Q21-0.12 15.06-0.12Q9.12-0.12 5.22-3.84Q1.32-7.56 1.32-14.04Q1.32-20.52 6.96-28.08Q12.60-35.64 21.54-40.56Q30.48-45.48 39.12-45.48L39.12-45.48Q40.32-45.48 42.72-45.24L42.72-45.24L42.36-40.56Q29.16-39.96 20.46-32.52Q11.76-25.08 11.76-16.68L11.76-16.68Q11.76-13.20 13.92-11.04Q16.08-8.88 19.56-8.88L19.56-8.88Q25.08-8.88 33.72-17.04Z" class="letter-0"/></g>
<g><path d="M91.32-8.76L91.32-8.76L94.08-6.48Q89.04 1.92 81 1.92L81 1.92Q74.04 1.92 74.04-4.92L74.04-4.92Q74.04-8.88 77.46-17.58Q80.88-26.28 80.88-29.04L80.88-29.04Q80.88-32.52 76.44-32.52Q72-32.52 64.38-22.98Q56.76-13.44 51.60-0.84L51.60-0.84L44.52-3.36Q50.76-34.68 77.16-87.24L77.16-87.24L83.04-85.32Q69.72-58.68 63.96-42.96L63.96-42.96Q57.96-26.64 54.96-15.96L54.96-15.96Q64.20-31.20 70.86-37.08Q77.52-42.96 82.44-42.96L82.44-42.96Q91.32-42.96 91.32-36.60L91.32-36.60Q91.32-32.64 86.88-22.44Q82.44-12.24 82.44-8.88Q82.44-5.52 85.68-5.52L85.68-5.52Q87.36-5.52 91.32-8.76Z" class="letter-1"/></g>
<g><path d="M130.56-14.16L130.56-14.16L133.32-12Q129.60-6.84 123.12-3.42Q116.64 0 110.52 0Q104.40 0 100.68-3.60Q96.96-7.20 96.96-13.08L96.96-13.08Q96.96-24.12 108.66-34.80Q120.36-45.48 132.36-45.48L132.36-45.48Q140.28-45.48 140.28-39.24L140.28-39.24Q140.28-32.76 131.94-26.16Q123.60-19.56 108.48-14.16L108.48-14.16Q109.56-11.40 111.84-9.84Q114.12-8.28 116.52-8.28L116.52-8.28Q121.68-8.28 130.56-14.16ZM107.88-17.76L107.88-17.76Q117.60-21.12 124.56-26.16Q131.52-31.20 131.52-35.40L131.52-35.40Q131.52-36.96 130.32-38.16Q129.12-39.36 127.56-39.36L127.56-39.36Q121.92-39.36 115.38-32.34Q108.84-25.32 107.88-17.76Z" class="letter-2"/></g>
<g><path d="M192.96-14.52L192.96-14.52L195.48-12.60Q192.84-7.32 188.22-3.72Q183.60-0.12 179.88-0.12Q176.16-0.12 174-2.28Q171.84-4.44 171.84-7.68Q171.84-10.92 175.98-19.02Q180.12-27.12 180.12-30.96L180.12-30.96Q180.12-32.64 178.74-34.02Q177.36-35.40 175.44-35.40L175.44-35.40Q169.32-35.40 163.08-26.10Q156.84-16.80 149.16 0.72L149.16 0.72L141.96-1.80Q144.24-15.72 148.50-28.98Q152.76-42.24 156.36-48L156.36-48L161.28-46.44Q157.92-37.92 152.76-17.04L152.76-17.04Q169.32-45.36 183.24-45.36L183.24-45.36Q186.24-45.36 188.22-43.32Q190.20-41.28 190.20-38.52Q190.20-35.76 189.48-33.54Q188.76-31.32 184.98-23.22Q181.20-15.12 181.20-13.08Q181.20-11.04 182.40-9.90Q183.60-8.76 184.68-8.76Q185.76-8.76 186.48-9.12Q187.20-9.48 188.10-10.20Q189-10.92 189.72-11.52Q190.44-12.12 191.46-13.14Q192.48-14.16 192.96-14.52Z" class="letter-3"/></g>
<g><path d="M240-1.08L250.08-4.32L250.20-1.44Q249-0.72 239.28 2.88L239.28 2.88Q235.44 25.80 228 36Q220.56 46.20 209.76 46.20L209.76 46.20Q204.72 46.20 201.72 42.96Q198.72 39.72 198.72 34.56L198.72 34.56Q198.72 24.24 208.20 15.30Q217.68 6.36 233.52 1.20L233.52 1.20Q235.32-6.84 240-21.48L240-21.48Q231.96-9.24 225.42-4.92Q218.88-0.60 213.60-0.60Q208.32-0.60 205.62-3.48Q202.92-6.36 202.92-11.16L202.92-11.16Q202.92-19.08 209.52-27.30Q216.12-35.52 226.14-40.74Q236.16-45.96 245.52-45.96L245.52-45.96L246.48-41.76Q233.16-40.32 223.62-32.40Q214.08-24.48 214.08-17.16L214.08-17.16Q214.08-14.04 216-12Q217.92-9.96 220.68-9.96L220.68-9.96Q224.76-9.96 233.04-18.60Q241.32-27.24 244.68-33.36L244.68-33.36L249.12-30.84Q242.52-13.20 240-1.08L240-1.08ZM232.80 4.80L232.80 4.80Q222.36 9.60 215.52 16.32Q208.68 23.04 208.68 28.56L208.68 28.56Q208.68 31.44 210.36 33.24Q212.04 35.04 214.56 35.04L214.56 35.04Q219.60 35.04 224.52 27.96Q229.44 20.88 232.80 4.80Z" class="letter-4"/></g>
<g><path d="M328.56-11.52L328.56-11.52L331.08-9.48Q327-3.12 324.06-0.30Q321.12 2.52 317.52 2.52Q313.92 2.52 311.64-0.36Q309.36-3.24 309.36-7.56L309.36-7.56Q309.36-15.96 320.40-43.74Q331.44-71.52 343.08-92.64L343.08-92.64L348.36-89.76Q336.60-66.96 327.12-44.46Q317.64-21.96 317.64-12.12L317.64-12.12Q317.64-6.48 321.84-6.48L321.84-6.48Q325.20-6.48 328.56-11.52Z" class="letter-5"/></g>
<g><path d="M375.96-14.16L375.96-14.16L378.72-12Q375.00-6.84 368.52-3.42Q362.04 0 355.92 0Q349.80 0 346.08-3.60Q342.36-7.20 342.36-13.08L342.36-13.08Q342.36-24.12 354.06-34.80Q365.76-45.48 377.76-45.48L377.76-45.48Q385.68-45.48 385.68-39.24L385.68-39.24Q385.68-32.76 377.34-26.16Q369.00-19.56 353.88-14.16L353.88-14.16Q354.96-11.40 357.24-9.84Q359.52-8.28 361.92-8.28L361.92-8.28Q367.08-8.28 375.96-14.16ZM353.28-17.76L353.28-17.76Q363.00-21.12 369.96-26.16Q376.92-31.20 376.92-35.40L376.92-35.40Q376.92-36.96 375.72-38.16Q374.52-39.36 372.96-39.36L372.96-39.36Q367.32-39.36 360.78-32.34Q354.24-25.32 353.28-17.76Z" class="letter-6"/></g>
<g><path d="M412.56-50.88L412.56-50.88Q405.84-50.88 405.84-56.28L405.84-56.28Q405.84-59.28 407.52-61.32Q409.20-63.36 411.84-63.36Q414.48-63.36 416.16-61.80Q417.84-60.24 417.84-57.72Q417.84-55.20 416.40-53.04Q414.96-50.88 412.56-50.88ZM411-15.48L411-15.48L413.40-13.44Q410.52-7.92 405.78-4.02Q401.04-0.12 397.20-0.12L397.20-0.12Q390.48-0.12 390.48-9.48L390.48-9.48Q390.48-21.12 400.08-39.84L400.08-39.84Q402.24-43.92 402.60-44.64L402.60-44.64L407.76-41.52Q405.24-36.96 401.58-27Q397.92-17.04 397.92-14.22Q397.92-11.40 399.12-10.20Q400.32-9 402-9L402-9Q405.24-9 411-15.48Z" class="letter-7"/></g>
</svg>